<svg width="413" height="480" viewBox="0 0 413 480" fill="none" xmlns="http://www.w3.org/2000/svg">
<path d="M321.342 222.471C319.275 221.48 317.175 220.526 315.047 219.613C311.342 151.346 274.04 112.262 211.405 111.862C211.121 111.861 210.839 111.861 210.555 111.861C173.091 111.861 141.933 127.852 122.755 156.952L157.202 180.582C171.529 158.846 194.013 154.212 210.572 154.212C210.763 154.212 210.955 154.212 211.144 154.214C231.768 154.345 247.33 160.342 257.402 172.035C264.732 180.548 269.635 192.312 272.062 207.16C253.777 204.052 234.002 203.096 212.862 204.308C153.312 207.738 115.028 242.47 117.599 290.73C118.904 315.21 131.099 336.27 151.938 350.027C169.556 361.658 192.247 367.345 215.831 366.057C246.975 364.35 271.408 352.467 288.452 330.74C301.397 314.24 309.585 292.857 313.2 265.915C328.043 274.872 339.042 286.66 345.117 300.83C355.447 324.918 356.05 364.5 323.753 396.77C295.455 425.04 261.44 437.27 210.034 437.648C153.01 437.225 109.884 418.938 81.8452 383.293C55.5887 349.915 42.0192 301.705 41.513 240C42.0192 178.294 55.5887 130.084 81.8452 96.7068C109.884 61.0623 153.01 42.775 210.033 42.3512C267.47 42.7783 311.348 61.1535 340.46 96.97C354.735 114.534 365.497 136.622 372.592 162.376L412.96 151.605C404.36 119.906 390.827 92.5892 372.412 69.935C335.09 24.0167 280.505 0.48787 210.174 0H209.892C139.704 0.486175 85.7302 24.1045 49.4707 70.1982C17.2048 111.216 0.561 168.289 0.00174999 239.831L0 240L0.00174999 240.169C0.561 311.71 17.2048 368.785 49.4707 409.803C85.7302 455.895 139.704 479.515 209.892 480H210.174C272.575 479.568 316.56 463.23 352.795 427.028C400.202 379.665 398.775 320.298 383.15 283.853C371.94 257.717 350.568 236.49 321.342 222.471ZM213.601 323.768C187.501 325.238 160.386 313.522 159.049 288.43C158.058 269.825 172.29 249.065 215.203 246.592C220.117 246.309 224.94 246.17 229.678 246.17C245.265 246.17 259.848 247.684 273.105 250.583C268.16 312.337 239.155 322.365 213.601 323.768Z" fill="white"/>
</svg>
